<?xml version="1.0" standalone="no"?>
<svg viewBox="0 0 200 200" xmlns="http://www.w3.org/2000/svg">
  <path fill="#FF0066" d="M27.6,-50.1C39.3,-41.1,54.6,-40.7,57.9,-33.8C61.1,-27,52.2,-13.5,49.1,-1.8C46.1,9.9,48.9,19.9,47.6,30.1C46.3,40.4,40.9,50.9,32.3,61.5C23.6,72.2,11.8,83,1.9,79.7C-8.1,76.5,-16.1,59.2,-27.4,50.1C-38.7,41,-53.3,40.1,-59.6,33.1C-65.9,26.1,-64.1,13,-57.6,3.7C-51.2,-5.6,-40.1,-11.2,-35.8,-21.7C-31.5,-32.1,-33.9,-47.5,-29,-60.5C-24.2,-73.5,-12.1,-84.2,-2.1,-80.6C8,-77,15.9,-59.2,27.6,-50.1Z" transform="translate(100 100)" />
</svg>
